<svg width="29" height="26" viewBox="0 0 29 26" fill="none" xmlns="http://www.w3.org/2000/svg">
<path opacity="0.5" d="M1 18.7391V9.34783C1 7.26087 3 5.69565 4.0566 5.69565C5.47644 5.69565 7.24314 5.69565 9.15094 5.69565M1 18.7391V21.8696C1.16981 22.913 2.01887 25 4.0566 25C6.09434 25 19.1698 25 25.4528 25C26.3019 25 28 24.3739 28 21.8696C28 21.1348 28 20.0228 28 18.7391M1 18.7391H28M28 18.7391C28 15.6474 28 11.5598 28 9.34783C28 8.13043 27.4906 5.69565 25.4528 5.69565C24.7701 5.69565 22.8485 5.69565 20.3585 5.69565M9.15094 5.69565V3.6087C9.32076 2.73913 10.1698 1 12.2075 1C14.2453 1 17.1321 1 18.3208 1C19 1.17391 20.3585 1.93913 20.3585 3.6087C20.3585 4.86087 20.3585 5.52174 20.3585 5.69565M9.15094 5.69565C12.8571 5.69565 17.0958 5.69565 20.3585 5.69565" stroke="#020202" stroke-width="2"/>
</svg>
